<svg width="29" height="34" viewBox="0 0 29 34" fill="none" xmlns="http://www.w3.org/2000/svg">
<path d="M12.2604 28.6666C13.3951 28.6666 14.3507 28.3055 15.127 27.5833C15.9034 26.861 16.2916 25.9721 16.2916 24.9166V18.6666H21.6666V15.3333H14.5V21.7916C14.1715 21.5694 13.8209 21.4094 13.4483 21.3116C13.0756 21.2138 12.6796 21.1655 12.2604 21.1666C11.1257 21.1666 10.1701 21.5277 9.39371 22.2499C8.61732 22.9721 8.22913 23.861 8.22913 24.9166C8.22913 25.9721 8.61732 26.861 9.39371 27.5833C10.1701 28.3055 11.1257 28.6666 12.2604 28.6666ZM3.74996 33.6666C2.76454 33.6666 1.92126 33.3405 1.22013 32.6883C0.518987 32.036 0.16782 31.251 0.166626 30.3333V3.66659C0.166626 2.74992 0.517792 1.96547 1.22013 1.31325C1.92246 0.66103 2.76574 0.334363 3.74996 0.333252H18.0833L28.8333 10.3333V30.3333C28.8333 31.2499 28.4827 32.0349 27.7816 32.6883C27.0804 33.3416 26.2366 33.6677 25.25 33.6666H3.74996ZM16.2916 11.9999H25.25L16.2916 3.66659V11.9999Z" fill="#34A853"/>
</svg>
