<svg width="28" height="28" viewBox="0 0 28 28" fill="none" xmlns="http://www.w3.org/2000/svg">
<path d="M25.4 27.5L15.95 18.05C15.2 18.65 14.3375 19.125 13.3625 19.475C12.3875 19.825 11.35 20 10.25 20C7.525 20 5.219 19.056 3.332 17.168C1.445 15.28 0.501001 12.974 0.500001 10.25C0.499001 7.526 1.443 5.22 3.332 3.332C5.221 1.444 7.527 0.5 10.25 0.5C12.973 0.5 15.2795 1.444 17.1695 3.332C19.0595 5.22 20.003 7.526 20 10.25C20 11.35 19.825 12.3875 19.475 13.3625C19.125 14.3375 18.65 15.2 18.05 15.95L27.5 25.4L25.4 27.5ZM10.25 17C12.125 17 13.719 16.344 15.032 15.032C16.345 13.72 17.001 12.126 17 10.25C16.999 8.374 16.343 6.7805 15.032 5.4695C13.721 4.1585 12.127 3.502 10.25 3.5C8.373 3.498 6.7795 4.1545 5.4695 5.4695C4.1595 6.7845 3.503 8.378 3.5 10.25C3.497 12.122 4.1535 13.716 5.4695 15.032C6.7855 16.348 8.379 17.004 10.25 17Z" fill="#383838"/>
</svg>
