<svg width="20" height="26" viewBox="0 0 20 26" fill="none" xmlns="http://www.w3.org/2000/svg">
<path d="M0 21.75V19.25H2.5V10.5C2.5 8.77084 3.02083 7.23459 4.0625 5.89125C5.10417 4.54792 6.45833 3.6675 8.125 3.25V2.375C8.125 1.85417 8.3075 1.41167 8.6725 1.0475C9.0375 0.683336 9.48 0.500836 10 0.500003C10.52 0.49917 10.9629 0.681669 11.3287 1.0475C11.6946 1.41334 11.8767 1.85584 11.875 2.375V3.25C13.5417 3.66667 14.8958 4.54709 15.9375 5.89125C16.9792 7.23542 17.5 8.77167 17.5 10.5V19.25H20V21.75H0ZM10 25.5C9.3125 25.5 8.72417 25.2554 8.235 24.7663C7.74583 24.2771 7.50083 23.6883 7.5 23H12.5C12.5 23.6875 12.2554 24.2763 11.7663 24.7663C11.2771 25.2563 10.6883 25.5008 10 25.5Z" fill="#383838"/>
</svg>
