<svg width="35" height="30" viewBox="0 0 35 30" fill="none" xmlns="http://www.w3.org/2000/svg">
<path d="M1.375 4.99996C1.375 4.1159 1.75253 3.26806 2.42453 2.64294C3.09654 2.01782 4.00797 1.66663 4.95833 1.66663H11.9996C12.5894 1.66654 13.1701 1.80189 13.6901 2.06064C14.2102 2.3194 14.6536 2.69357 14.9809 3.14996L16.4358 5.18329C16.7631 5.63968 17.2065 6.01385 17.7265 6.27261C18.2466 6.53137 18.8273 6.66671 19.4171 6.66663H30.0417C30.992 6.66663 31.9035 7.01782 32.5755 7.64294C33.2475 8.26806 33.625 9.1159 33.625 9.99996V25C33.625 25.884 33.2475 26.7319 32.5755 27.357C31.9035 27.9821 30.992 28.3333 30.0417 28.3333H4.95833C4.00797 28.3333 3.09654 27.9821 2.42453 27.357C1.75253 26.7319 1.375 25.884 1.375 25V4.99996Z" fill="#FF9D00" stroke="#FF9D00" stroke-width="2" stroke-linecap="round" stroke-linejoin="round"/>
</svg>
