<svg width="36" height="32" viewBox="0 0 36 32" fill="none" xmlns="http://www.w3.org/2000/svg">
<path d="M1.5 5.00004C1.5 4.02758 1.88631 3.09495 2.57394 2.40732C3.26157 1.71968 4.19421 1.33337 5.16667 1.33337H12.3717C12.9752 1.33328 13.5694 1.48216 14.1015 1.76679C14.6337 2.05143 15.0874 2.46301 15.4223 2.96504L16.911 5.20171C17.2459 5.70373 17.6996 6.11532 18.2318 6.39996C18.764 6.68459 19.3582 6.83346 19.9617 6.83337H30.8333C31.8058 6.83337 32.7384 7.21968 33.4261 7.90732C34.1137 8.59495 34.5 9.52758 34.5 10.5V27C34.5 27.9725 34.1137 28.9051 33.4261 29.5928C32.7384 30.2804 31.8058 30.6667 30.8333 30.6667H5.16667C4.19421 30.6667 3.26157 30.2804 2.57394 29.5928C1.88631 28.9051 1.5 27.9725 1.5 27V5.00004Z" fill="white" stroke="white" stroke-width="2" stroke-linecap="round" stroke-linejoin="round"/>
</svg>
