<svg width="30" height="30" viewBox="0 0 30 30" fill="none" xmlns="http://www.w3.org/2000/svg">
<path d="M2.5127 15C2.5127 8.11435 8.11484 2.51221 15.0004 2.51221C21.8852 2.51221 27.4867 8.11502 27.4867 15C27.4867 21.8849 21.8852 27.4877 15.0004 27.4877C8.11557 27.4877 2.5127 21.8855 2.5127 15ZM2.6377 15C2.6377 21.8168 8.18278 27.3627 15.0004 27.3627C21.8174 27.3627 27.3617 21.8168 27.3617 15C27.3617 8.18315 21.8174 2.63721 15.0004 2.63721C8.18278 2.63721 2.6377 8.18308 2.6377 15Z" fill="#383838" stroke="#383838"/>
<path d="M15.0096 17.0227C14.0166 17.0203 13.0397 17.273 12.1724 17.7566C11.3051 18.2401 10.5766 18.9383 10.0566 19.7842C10.0174 19.8477 10.005 19.9241 10.0222 19.9967C10.0394 20.0692 10.0846 20.132 10.1481 20.1712L10.5771 20.436C10.6405 20.4749 10.7167 20.4871 10.7891 20.47C10.8615 20.4528 10.9241 20.4077 10.9633 20.3445C11.387 19.6523 11.9817 19.081 12.6903 18.6855C13.3989 18.2899 14.1973 18.0836 15.0088 18.0862C15.8155 18.0836 16.6094 18.2876 17.3149 18.6787C18.0204 19.0698 18.6141 19.635 19.0393 20.3205C19.0791 20.3833 19.1421 20.4278 19.2146 20.4444C19.2871 20.4609 19.3632 20.4482 19.4263 20.409L19.8523 20.142C19.8839 20.1227 19.9113 20.0973 19.9328 20.0672C19.9544 20.0372 19.9698 20.0032 19.978 19.9671C19.9863 19.9311 19.9872 19.8937 19.9809 19.8573C19.9745 19.8209 19.9609 19.7861 19.9408 19.755C19.4198 18.9171 18.6932 18.2263 17.8302 17.7481C16.9672 17.27 15.9962 17.0203 15.0096 17.0227Z" fill="#F66E00"/>
<path d="M11.856 12.0037C11.856 12.16 11.7293 12.2867 11.573 12.2867C11.4167 12.2867 11.29 12.16 11.29 12.0037C11.29 11.8474 11.4167 11.7207 11.573 11.7207C11.7293 11.7207 11.856 11.8474 11.856 12.0037Z" fill="#383838" stroke="#383838"/>
<path d="M18.7086 12.0037C18.7086 12.16 18.5819 12.2867 18.4256 12.2867C18.2693 12.2867 18.1426 12.16 18.1426 12.0037C18.1426 11.8474 18.2693 11.7207 18.4256 11.7207C18.5819 11.7207 18.7086 11.8474 18.7086 12.0037Z" fill="#383838" stroke="#383838"/>
</svg>
