<svg width="26" height="24" viewBox="0 0 26 24" fill="none" xmlns="http://www.w3.org/2000/svg">
<path d="M25.5 20.2562C25.5 20.5049 25.4012 20.7433 25.2254 20.9191C25.0496 21.095 24.8111 21.1937 24.5625 21.1937H18.1875C17.9787 21.9723 17.5189 22.6603 16.8793 23.1509C16.2397 23.6416 15.4561 23.9075 14.65 23.9075C13.8439 23.9075 13.0603 23.6416 12.4207 23.1509C11.7811 22.6603 11.3213 21.9723 11.1125 21.1937H1.4375C1.18886 21.1937 0.950403 21.095 0.774587 20.9191C0.598772 20.7433 0.5 20.5049 0.5 20.2562C0.5 20.0076 0.598772 19.7691 0.774587 19.5933C0.950403 19.4175 1.18886 19.3187 1.4375 19.3187H11.1125C11.3213 18.5401 11.7811 17.8522 12.4207 17.3615C13.0603 16.8709 13.8439 16.6049 14.65 16.6049C15.4561 16.6049 16.2397 16.8709 16.8793 17.3615C17.5189 17.8522 17.9787 18.5401 18.1875 19.3187H24.5625C24.8111 19.3187 25.0496 19.4175 25.2254 19.5933C25.4012 19.7691 25.5 20.0076 25.5 20.2562ZM25.5 3.74372C25.5 3.99236 25.4012 4.23082 25.2254 4.40664C25.0496 4.58245 24.8111 4.68122 24.5625 4.68122H21.5C21.2912 5.45982 20.8314 6.14778 20.1918 6.63844C19.5522 7.12909 18.7686 7.39504 17.9625 7.39504C17.1564 7.39504 16.3728 7.12909 15.7332 6.63844C15.0936 6.14778 14.6338 5.45982 14.425 4.68122H1.4375C1.31439 4.68122 1.19248 4.65698 1.07873 4.60986C0.964992 4.56275 0.861642 4.49369 0.774587 4.40664C0.687532 4.31958 0.618477 4.21623 0.571363 4.10249C0.524249 3.98875 0.5 3.86684 0.5 3.74372C0.5 3.62061 0.524249 3.4987 0.571363 3.38496C0.618477 3.27122 0.687532 3.16787 0.774587 3.08081C0.861642 2.99376 0.964992 2.9247 1.07873 2.87759C1.19248 2.83047 1.31439 2.80622 1.4375 2.80622H14.425C14.6338 2.02763 15.0936 1.33967 15.7332 0.849012C16.3728 0.358353 17.1564 0.0924072 17.9625 0.0924072C18.7686 0.0924072 19.5522 0.358353 20.1918 0.849012C20.8314 1.33967 21.2912 2.02763 21.5 2.80622H24.5625C24.6861 2.80454 24.8087 2.82764 24.9232 2.87416C25.0377 2.92068 25.1418 2.98967 25.2292 3.07706C25.3166 3.16446 25.3855 3.26848 25.4321 3.38298C25.4786 3.49748 25.5017 3.62014 25.5 3.74372ZM25.5 11.9937C25.5017 12.1173 25.4786 12.24 25.4321 12.3545C25.3855 12.469 25.3166 12.573 25.2292 12.6604C25.1418 12.7478 25.0377 12.8168 24.9232 12.8633C24.8087 12.9098 24.6861 12.9329 24.5625 12.9312H9.9375C9.7287 13.7098 9.26886 14.3978 8.62928 14.8884C7.9897 15.3791 7.20611 15.645 6.4 15.645C5.59389 15.645 4.8103 15.3791 4.17072 14.8884C3.53114 14.3978 3.0713 13.7098 2.8625 12.9312H1.4375C1.18886 12.9312 0.950403 12.8325 0.774587 12.6566C0.598772 12.4808 0.5 12.2424 0.5 11.9937C0.5 11.7451 0.598772 11.5066 0.774587 11.3308C0.950403 11.155 1.18886 11.0562 1.4375 11.0562H2.8625C3.0713 10.2776 3.53114 9.58967 4.17072 9.09901C4.8103 8.60835 5.59389 8.34241 6.4 8.34241C7.20611 8.34241 7.9897 8.60835 8.62928 9.09901C9.26886 9.58967 9.7287 10.2776 9.9375 11.0562H24.5625C24.8111 11.0562 25.0496 11.155 25.2254 11.3308C25.4012 11.5066 25.5 11.7451 25.5 11.9937Z" fill="#383838"/>
</svg>
