<svg width="27" height="32" viewBox="0 0 27 32" fill="none" xmlns="http://www.w3.org/2000/svg">
<path d="M0.599976 3C0.599976 2.20435 0.939751 1.44129 1.54456 0.87868C2.14936 0.316071 2.96965 0 3.82498 0H23.175C24.0303 0 24.8506 0.316071 25.4554 0.87868C26.0602 1.44129 26.4 2.20435 26.4 3V29C26.4 29.7956 26.0602 30.5587 25.4554 31.1213C24.8506 31.6839 24.0303 32 23.175 32H3.82498C2.96965 32 2.14936 31.6839 1.54456 31.1213C0.939751 30.5587 0.599976 29.7956 0.599976 29V3ZM4.89998 9C4.89998 9.26522 5.01323 9.51957 5.21484 9.70711C5.41644 9.89464 5.68987 10 5.97498 10H21.025C21.3101 10 21.5835 9.89464 21.7851 9.70711C21.9867 9.51957 22.1 9.26522 22.1 9C22.1 8.73478 21.9867 8.48043 21.7851 8.29289C21.5835 8.10536 21.3101 8 21.025 8H5.97498C5.68987 8 5.41644 8.10536 5.21484 8.29289C5.01323 8.48043 4.89998 8.73478 4.89998 9ZM5.97498 12C5.68987 12 5.41644 12.1054 5.21484 12.2929C5.01323 12.4804 4.89998 12.7348 4.89998 13C4.89998 13.2652 5.01323 13.5196 5.21484 13.7071C5.41644 13.8946 5.68987 14 5.97498 14H21.025C21.3101 14 21.5835 13.8946 21.7851 13.7071C21.9867 13.5196 22.1 13.2652 22.1 13C22.1 12.7348 21.9867 12.4804 21.7851 12.2929C21.5835 12.1054 21.3101 12 21.025 12H5.97498ZM4.89998 17C4.89998 17.2652 5.01323 17.5196 5.21484 17.7071C5.41644 17.8946 5.68987 18 5.97498 18H14.575C14.8601 18 15.1335 17.8946 15.3351 17.7071C15.5367 17.5196 15.65 17.2652 15.65 17C15.65 16.7348 15.5367 16.4804 15.3351 16.2929C15.1335 16.1054 14.8601 16 14.575 16H5.97498C5.68987 16 5.41644 16.1054 5.21484 16.2929C5.01323 16.4804 4.89998 16.7348 4.89998 17Z" fill="#EA4335"/>
</svg>
