<svg width="38" height="30" viewBox="0 0 38 30" fill="none" xmlns="http://www.w3.org/2000/svg">
<path fill-rule="evenodd" clip-rule="evenodd" d="M4.33329 0C3.36083 0 2.4282 0.351189 1.74057 0.976311C1.05293 1.60143 0.666626 2.44928 0.666626 3.33333V26.6667C0.666626 27.5507 1.05293 28.3986 1.74057 29.0237C2.4282 29.6488 3.36083 30 4.33329 30H33.6666C34.6391 30 35.5717 29.6488 36.2593 29.0237C36.947 28.3986 37.3333 27.5507 37.3333 26.6667V3.33333C37.3333 2.44928 36.947 1.60143 36.2593 0.976311C35.5717 0.351189 34.6391 0 33.6666 0H4.33329ZM12.8125 9.38333C12.8531 9.0647 12.9752 8.75911 13.1688 8.49096C13.3625 8.22282 13.6224 7.99953 13.9279 7.83892C14.2333 7.67831 14.5758 7.58481 14.928 7.5659C15.2803 7.54699 15.6325 7.60319 15.9566 7.73C16.8806 8.09 18.8313 8.9 21.3026 10.1967C23.0394 11.0991 24.7167 12.093 26.326 13.1733C26.6089 13.3647 26.8387 13.6136 26.997 13.9001C27.1553 14.1866 27.2378 14.5027 27.2378 14.8233C27.2378 15.1439 27.1553 15.4601 26.997 15.7466C26.8387 16.0331 26.6089 16.2819 26.326 16.4733C24.7167 17.5526 23.0393 18.5454 21.3026 19.4467C19.5751 20.364 17.7901 21.1887 15.9566 21.9167C15.6325 22.0438 15.2802 22.1003 14.9278 22.0816C14.5755 22.0628 14.2328 21.9694 13.9272 21.8087C13.6217 21.648 13.3617 21.4246 13.1682 21.1563C12.9746 20.8879 12.8528 20.5821 12.8125 20.2633C12.5925 18.457 12.4848 16.6407 12.4898 14.8233C12.4898 12.2383 12.6951 10.2917 12.8125 9.38333Z" fill="#4285F4"/>
</svg>
