<svg width="38" height="38" viewBox="0 0 38 38" fill="none" xmlns="http://www.w3.org/2000/svg">
<path fill-rule="evenodd" clip-rule="evenodd" d="M37.2394 19.4315C37.2394 18.0842 37.1185 16.7888 36.894 15.5452H18.9997V22.8946H29.225C28.7846 25.2696 27.4459 27.2818 25.4337 28.6291V33.3963H31.5741C35.1667 30.0886 37.2394 25.2177 37.2394 19.4315Z" fill="#4285F4"/>
<path fill-rule="evenodd" clip-rule="evenodd" d="M18.9995 37.9991C24.1294 37.9991 28.4303 36.2977 31.5738 33.396L25.4335 28.6288C23.7321 29.7687 21.5558 30.4424 18.9995 30.4424C14.0509 30.4424 9.86236 27.1002 8.36829 22.6093H2.02066V27.532C5.14698 33.7414 11.5723 37.9991 18.9995 37.9991Z" fill="#34A853"/>
<path fill-rule="evenodd" clip-rule="evenodd" d="M8.36851 22.6098C7.98852 21.4698 7.77261 20.2521 7.77261 18.9999C7.77261 17.7476 7.98852 16.5299 8.36851 15.3899V10.4673H2.02088C0.73408 13.0322 0 15.934 0 18.9999C0 22.0657 0.73408 24.9675 2.02088 27.5325L8.36851 22.6098Z" fill="#FBBC05"/>
<path fill-rule="evenodd" clip-rule="evenodd" d="M18.9995 7.5567C21.789 7.5567 24.2935 8.51533 26.2626 10.398L31.712 4.94856C28.4216 1.8827 24.1208 0 18.9995 0C11.5723 0 5.14698 4.25766 2.02066 10.4671L8.36829 15.3898C9.86236 10.8989 14.0509 7.5567 18.9995 7.5567Z" fill="#EA4335"/>
</svg>
